<?xml version="1.0" encoding="utf-8"?>
<!-- Generator: Adobe Illustrator 22.1.0, SVG Export Plug-In . SVG Version: 6.00 Build 0)  -->
<svg version="1.1" id="Шар_1" xmlns="http://www.w3.org/2000/svg" xmlns:xlink="http://www.w3.org/1999/xlink" x="0px" y="0px"
	 viewBox="0 0 1000 1000" style="enable-background:new 0 0 1000 1000;" xml:space="preserve">
<style type="text/css">
	.st0{fill:#FFFFFF;stroke:#000000;stroke-width:3;stroke-miterlimit:10;}
	.st1{stroke:#000000;stroke-width:2;stroke-miterlimit:10;}
	.st2{fill:#FFFFFF;stroke:#000000;stroke-width:2;stroke-miterlimit:10;}
</style>
<circle class="st0" cx="503.7" cy="505" r="485"/>
<g>
	<path class="st1" d="M151.5,714c96.9-77.5,181.2-128.3,268.3-178.1c0-0.1,0-0.2,0-0.3c-6.7-2.5-124.7-46.7-124.7-46.7l141-81.2
		l53.3,14.2l385.5-148c0,0,3.5-1.3,6.9-2.7c-2.9,2.3-5.8,4.6-5.8,4.6L554.6,534.7l-14.2,53.2c-0.5,0.3-1,0.6-1,0.6l-141,81.2
		c0,0-0.5,0.3-1,0.6l21.9-131.4c0,0,0.2-1.2,0.5-3c0,0,0,0,0,0C274.9,619.4,205.7,772,260,893.1c4.3,2.6,10.9,10.4,15.3,12.9
		c-35.6-74.9-25.8-163.8,19.8-240.8c-3.3,56.7,6.1,114.6,29.7,166.6c21.4,47.2,54.9,89.6,98.8,117.6c5.7,3.6,12.9,8.1,20.9,13
		c19.5,2.5,39.3,3.9,59.3,3.7c69.4-0.7,125.2-12.4,179.9-36.2c54.8-23.8,104.5-56.4,146.9-98.7c42.4-42.4,75.7-91.6,99-146.5
		c24.1-56.8,36.2-117.3,36.2-179.4s-12.2-122.5-36.3-179.3c-23.2-54.9-56.6-104.2-99-146.5c-42.4-42.3-91.8-75.5-146.9-98.7
		c-57-24-117.6-36.2-179.9-36.2c-62.5,0-123,12.2-180.1,36.2c-55,23.2-104.5,56.4-146.9,98.7c-42.4,42.4-75.7,91.6-99,146.5
		c-24.1,56.8-36.3,117.1-36.3,179.3S53.6,627.8,78,684.6c9.7,23,21.3,45.1,34.5,66.1C121.6,738.4,138.1,724.8,151.5,714z"/>
	<path class="st2" d="M419.8,535.9C419.8,535.9,419.8,535.9,419.8,535.9c0.1-0.1,0.2-0.1,0.3-0.2C420,535.8,419.9,535.8,419.8,535.9
		z"/>
</g>
</svg>
